<svg width="446.293" height="236.59" viewBox="0 0 118.082 62.598" xmlns:xlink="http://www.w3.org/1999/xlink" xmlns="http://www.w3.org/2000/svg">
  <defs>
    <linearGradient id="a">
      <stop style="stop-color:#b4ff00;stop-opacity:1" offset="0"/>
      <stop style="stop-color:#0ff;stop-opacity:1" offset=".772"/>
    </linearGradient>
    <linearGradient xlink:href="#a" id="b" x1="92.29" y1="109.886" x2="146.96" y2="55.217" gradientUnits="userSpaceOnUse"/>
  </defs>
  <path d="M116.87 74.54a8.3 8.3 0 0 0-2.218.199c-1.21.281-2.908 1.441-3.941 2.139L95.19 87.362c-1.033.698-2.852 1.818-3.315 2.95-.34.83-.285 1.74.158 2.59.569 1.092 2.324 2.24 3.34 2.962l1.18.841c1.016.723 2.57.594 3.635-.052a10.97 10.97 0 0 1 11.577.146c1.048.673 2.5 2.11 3.181 3.148a10.7 10.7 0 0 1 1.485 8.268c-.278 1.207.095 2.707 1.11 3.43l16.025 11.406c1.016.723 2.675 1.924 3.861 2.298 1.436.453 3.033.52 4.45.19 1.21-.281 2.909-1.44 3.942-2.139l15.52-10.484c1.033-.698 2.852-1.818 3.315-2.95.34-.831.285-1.74-.159-2.591-.568-1.091-2.323-2.24-3.339-2.962l-38.193-27.186c-1.016-.723-2.675-1.924-3.862-2.298a8.7 8.7 0 0 0-2.232-.389M71.945 85.922c-1.545-.055-3.077.3-4.227 1.076L48.457 100.01c-2.3 1.554-2.204 4.209.214 5.93l41.872 29.805c2.418 1.721 6.243 1.857 8.543.303l19.261-13.012c2.3-1.554 2.204-4.208-.214-5.93l-3.58-2.548c-.707-.503-1.787-.42-2.498.076-4.24 2.957-10.113 2.552-13.901-1.166l-.024-.024a10.72 10.72 0 0 1-2.705-10.466c.259-.912-.03-2.057-.807-2.61L76.261 87.303c-1.21-.86-2.77-1.325-4.316-1.38m33.889 13.094a6.9 6.9 0 0 0-4.862 1.996 6.773 6.773 0 0 0 0 9.638c2.685 2.662 7.038 2.662 9.723 0a6.773 6.773 0 0 0 0-9.638 6.9 6.9 0 0 0-4.861-1.996" style="fill:url(#b);stroke-width:0" transform="translate(-46.793 -74.532)"/>
</svg>
